# xmcd
#
# Track frame offsets:
#	150
#	25470
#	46583
#	66808
#	90145
#	107070
#	125670
#	154395
#	173333
#	194933
#	225320
#	239058
#	262683
#
# Disc length: 3666 seconds
#
# Revision: 0
# Processed by: cddbd v1.5.2PL0 Copyright (c) Steve Scherf et al.
# Submitted via: EasyCDDAExtractor 10.2.0.1
#
DISCID=a30e500d
DTITLE=FREDL FESL - Fußball-Lied und andere Erfolge CD 3
DYEAR=2005
DGENRE=Comedy
TTITLE0=Ritter Hadubrand
TTITLE1=Taxilied
TTITLE2=Das Lied vom Rausch
TTITLE3=Fensterstock Hiasl
TTITLE4=Ein eiskaltes Lied
TTITLE5=Amen (Bibel-G'Stanzl)
TTITLE6=Für die Katz
TTITLE7=Rosinante
TTITLE8=Seelenblues
TTITLE9=Ramersdorfer Ritterragtime
TTITLE10=Ukrainischer Holzschnitt
TTITLE11=Rauch
TTITLE12=Herzliebste Brüder
EXTD=
EXTT0=
EXTT1=
EXTT2=
EXTT3=
EXTT4=
EXTT5=
EXTT6=
EXTT7=
EXTT8=
EXTT9=
EXTT10=
EXTT11=
EXTT12=
PLAYORDER=
